{"asset":{"version":"2.0","generator":"Blockbench 5.0.7 glTF exporter"},"scenes":[{"nodes":[0,1,2,3,4,5,6,7],"name":"blockbench_export"}],"scene":0,"nodes":[{"name":"floor","mesh":0},{"translation":[0,0,1],"name":"floor","mesh":1},{"translation":[0,0,2],"name":"floor","mesh":2},{"translation":[0,0,-0.5],"name":"wall_window","mesh":3},{"translation":[-0.4921875,0,0],"name":"wall","mesh":4},{"translation":[0.4921875,0,0],"name":"wall2","mesh":5},{"translation":[0,0,0.5],"name":"mesh","mesh":6},{"rotation":[0.7071067811865475,0,0,0.7071067811865476],"translation":[0,0.125,-0.5],"name":"window","mesh":7}],"bufferViews":[{"buffer":0,"byteOffset":0,"byteLength":48,"target":34962,"byteStride":12},{"buffer":0,"byteOffset":48,"byteLength":48,"target":34962,"byteStride":12},{"buffer":0,"byteOffset":96,"byteLength":32,"target":34962,"byteStride":8},{"buffer":0,"byteOffset":128,"byteLength":12,"target":34963},{"buffer":0,"byteOffset":140,"byteLength":48,"target":34962,"byteStride":12},{"buffer":0,"byteOffset":188,"byteLength":48,"target":34962,"byteStride":12},{"buffer":0,"byteOffset":236,"byteLength":32,"target":34962,"byteStride":8},{"buffer":0,"byteOffset":268,"byteLength":12,"target":34963},{"buffer":0,"byteOffset":280,"byteLength":48,"target":34962,"byteStride":12},{"buffer":0,"byteOffset":328,"byteLength":48,"target":34962,"byteStride":12},{"buffer":0,"byteOffset":376,"byteLength":32,"target":34962,"byteStride":8},{"buffer":0,"byteOffset":408,"byteLength":12,"target":34963},{"buffer":0,"byteOffset":420,"byteLength":4704,"target":34962,"byteStride":12},{"buffer":0,"byteOffset":5124,"byteLength":4704,"target":34962,"byteStride":12},{"buffer":0,"byteOffset":9828,"byteLength":3136,"target":34962,"byteStride":8},{"buffer":0,"byteOffset":12964,"byteLength":1176,"target":34963},{"buffer":0,"byteOffset":14140,"byteLength":288,"target":34962,"byteStride":12},{"buffer":0,"byteOffset":14428,"byteLength":288,"target":34962,"byteStride":12},{"buffer":0,"byteOffset":14716,"byteLength":192,"target":34962,"byteStride":8},{"buffer":0,"byteOffset":14908,"byteLength":72,"target":34963},{"buffer":0,"byteOffset":14980,"byteLength":288,"target":34962,"byteStride":12},{"buffer":0,"byteOffset":15268,"byteLength":288,"target":34962,"byteStride":12},{"buffer":0,"byteOffset":15556,"byteLength":192,"target":34962,"byteStride":8},{"buffer":0,"byteOffset":15748,"byteLength":72,"target":34963},{"buffer":0,"byteOffset":15820,"byteLength":288,"target":34962,"byteStride":12},{"buffer":0,"byteOffset":16108,"byteLength":288,"target":34962,"byteStride":12},{"buffer":0,"byteOffset":16396,"byteLength":192,"target":34962,"byteStride":8},{"buffer":0,"byteOffset":16588,"byteLength":72,"target":34963},{"buffer":0,"byteOffset":16660,"byteLength":48,"target":34962,"byteStride":12},{"buffer":0,"byteOffset":16708,"byteLength":48,"target":34962,"byteStride":12},{"buffer":0,"byteOffset":16756,"byteLength":32,"target":34962,"byteStride":8},{"buffer":0,"byteOffset":16788,"byteLength":12,"target":34963}],"buffers":[{"byteLength":16800,"uri":"data:application/octet-stream;base64,"}],"accessors":[{"bufferView":0,"componentType":5126,"count":4,"max":[0.5,0,0.5],"min":[-0.5,0,-0.5],"type":"VEC3"},{"bufferView":1,"componentType":5126,"count":4,"max":[0,1,0],"min":[0,1,0],"type":"VEC3"},{"bufferView":2,"componentType":5126,"count":4,"max":[2,2],"min":[0,0],"type":"VEC2"},{"bufferView":3,"componentType":5123,"count":6,"max":[3],"min":[0],"type":"SCALAR"},{"bufferView":4,"componentType":5126,"count":4,"max":[0.5,0,0.5],"min":[-0.5,0,-0.5],"type":"VEC3"},{"bufferView":5,"componentType":5126,"count":4,"max":[0,1,0],"min":[0,1,0],"type":"VEC3"},{"bufferView":6,"componentType":5126,"count":4,"max":[2,2],"min":[0,0],"type":"VEC2"},{"bufferView":7,"componentType":5123,"count":6,"max":[3],"min":[0],"type":"SCALAR"},{"bufferView":8,"componentType":5126,"count":4,"max":[0.5,0,0.5],"min":[-0.5,0,-0.5],"type":"VEC3"},{"bufferView":9,"componentType":5126,"count":4,"max":[0,1,0],"min":[0,1,0],"type":"VEC3"},{"bufferView":10,"componentType":5126,"count":4,"max":[2,2],"min":[0,0],"type":"VEC2"},{"bufferView":11,"componentType":5123,"count":6,"max":[3],"min":[0],"type":"SCALAR"},{"bufferView":12,"componentType":5126,"count":392,"max":[0.5,0.25,0.0078125],"min":[-0.5,0,-0.0078125],"type":"VEC3"},{"bufferView":13,"componentType":5126,"count":392,"max":[1,1,1],"min":[-1,-1,-1],"type":"VEC3"},{"bufferView":14,"componentType":5126,"count":392,"max":[1,1.09375],"min":[0,0],"type":"VEC2"},{"bufferView":15,"componentType":5123,"count":588,"max":[391],"min":[0],"type":"SCALAR"},{"bufferView":16,"componentType":5126,"count":24,"max":[0.0078125,0.25,0.5],"min":[-0.0078125,0,-0.5],"type":"VEC3"},{"bufferView":17,"componentType":5126,"count":24,"max":[1,1,1],"min":[-1,-1,-1],"type":"VEC3"},{"bufferView":18,"componentType":5126,"count":24,"max":[1,1.5625],"min":[0,0],"type":"VEC2"},{"bufferView":19,"componentType":5123,"count":36,"max":[23],"min":[0],"type":"SCALAR"},{"bufferView":20,"componentType":5126,"count":24,"max":[0.0078125,0.25,0.5],"min":[-0.0078125,0,-0.5],"type":"VEC3"},{"bufferView":21,"componentType":5126,"count":24,"max":[1,1,1],"min":[-1,-1,-1],"type":"VEC3"},{"bufferView":22,"componentType":5126,"count":24,"max":[1,1],"min":[0,0],"type":"VEC2"},{"bufferView":23,"componentType":5123,"count":36,"max":[23],"min":[0],"type":"SCALAR"},{"bufferView":24,"componentType":5126,"count":24,"max":[0.5,0.25,0.0078125],"min":[-0.5,0,-0.0078125],"type":"VEC3"},{"bufferView":25,"componentType":5126,"count":24,"max":[1,1,1],"min":[-1,-1,-1],"type":"VEC3"},{"bufferView":26,"componentType":5126,"count":24,"max":[1,0.9375],"min":[0,0],"type":"VEC2"},{"bufferView":27,"componentType":5123,"count":36,"max":[23],"min":[0],"type":"SCALAR"},{"bufferView":28,"componentType":5126,"count":4,"max":[0.375,0,0.1015625],"min":[-0.375,0,-0.1015625],"type":"VEC3"},{"bufferView":29,"componentType":5126,"count":4,"max":[0,1,0],"min":[0,1,0],"type":"VEC3"},{"bufferView":30,"componentType":5126,"count":4,"max":[0.75,0.21875],"min":[0,0],"type":"VEC2"},{"bufferView":31,"componentType":5123,"count":6,"max":[3],"min":[0],"type":"SCALAR"}],"materials":[{"pbrMetallicRoughness":{"metallicFactor":0,"roughnessFactor":1},"alphaMode":"MASK","alphaCutoff":0.05,"doubleSided":true},{"pbrMetallicRoughness":{"metallicFactor":0,"roughnessFactor":1},"alphaMode":"MASK","alphaCutoff":0.05,"doubleSided":true},{"pbrMetallicRoughness":{"metallicFactor":0,"roughnessFactor":1},"alphaMode":"MASK","alphaCutoff":0.05,"doubleSided":true},{"pbrMetallicRoughness":{"metallicFactor":0,"roughnessFactor":1},"alphaMode":"MASK","alphaCutoff":0.05,"doubleSided":true},{"pbrMetallicRoughness":{"metallicFactor":0,"roughnessFactor":1},"alphaMode":"MASK","alphaCutoff":0.05,"doubleSided":true}],"meshes":[{"primitives":[{"mode":4,"attributes":{"POSITION":0,"NORMAL":1,"TEXCOORD_0":2},"indices":3,"material":0}]},{"primitives":[{"mode":4,"attributes":{"POSITION":4,"NORMAL":5,"TEXCOORD_0":6},"indices":7,"material":0}]},{"primitives":[{"mode":4,"attributes":{"POSITION":8,"NORMAL":9,"TEXCOORD_0":10},"indices":11,"material":0}]},{"primitives":[{"mode":4,"attributes":{"POSITION":12,"NORMAL":13,"TEXCOORD_0":14},"indices":15,"material":1}]},{"primitives":[{"mode":4,"attributes":{"POSITION":16,"NORMAL":17,"TEXCOORD_0":18},"indices":19,"material":2}]},{"primitives":[{"mode":4,"attributes":{"POSITION":20,"NORMAL":21,"TEXCOORD_0":22},"indices":23,"material":2}]},{"primitives":[{"mode":4,"attributes":{"POSITION":24,"NORMAL":25,"TEXCOORD_0":26},"indices":27,"material":3}]},{"primitives":[{"mode":4,"attributes":{"POSITION":28,"NORMAL":29,"TEXCOORD_0":30},"indices":31,"material":4}]}]}