{"asset":{"version":"2.0","generator":"Blockbench 5.0.7 glTF exporter"},"scenes":[{"nodes":[0,1,2,3,4,5],"name":"blockbench_export"}],"scene":0,"nodes":[{"name":"floor","mesh":0},{"translation":[0,0,-1],"name":"wall_window","mesh":1},{"translation":[-0.984375,0,0],"name":"wall","mesh":2},{"translation":[0.984375,0,0],"name":"wall2","mesh":3},{"translation":[0,0,1],"name":"mesh","mesh":4},{"rotation":[0.7071067811865475,0,0,0.7071067811865476],"translation":[0,0.25,-1],"name":"window","mesh":5}],"bufferViews":[{"buffer":0,"byteOffset":0,"byteLength":48,"target":34962,"byteStride":12},{"buffer":0,"byteOffset":48,"byteLength":48,"target":34962,"byteStride":12},{"buffer":0,"byteOffset":96,"byteLength":32,"target":34962,"byteStride":8},{"buffer":0,"byteOffset":128,"byteLength":12,"target":34963},{"buffer":0,"byteOffset":140,"byteLength":4704,"target":34962,"byteStride":12},{"buffer":0,"byteOffset":4844,"byteLength":4704,"target":34962,"byteStride":12},{"buffer":0,"byteOffset":9548,"byteLength":3136,"target":34962,"byteStride":8},{"buffer":0,"byteOffset":12684,"byteLength":1176,"target":34963},{"buffer":0,"byteOffset":13860,"byteLength":288,"target":34962,"byteStride":12},{"buffer":0,"byteOffset":14148,"byteLength":288,"target":34962,"byteStride":12},{"buffer":0,"byteOffset":14436,"byteLength":192,"target":34962,"byteStride":8},{"buffer":0,"byteOffset":14628,"byteLength":72,"target":34963},{"buffer":0,"byteOffset":14700,"byteLength":288,"target":34962,"byteStride":12},{"buffer":0,"byteOffset":14988,"byteLength":288,"target":34962,"byteStride":12},{"buffer":0,"byteOffset":15276,"byteLength":192,"target":34962,"byteStride":8},{"buffer":0,"byteOffset":15468,"byteLength":72,"target":34963},{"buffer":0,"byteOffset":15540,"byteLength":288,"target":34962,"byteStride":12},{"buffer":0,"byteOffset":15828,"byteLength":288,"target":34962,"byteStride":12},{"buffer":0,"byteOffset":16116,"byteLength":192,"target":34962,"byteStride":8},{"buffer":0,"byteOffset":16308,"byteLength":72,"target":34963},{"buffer":0,"byteOffset":16380,"byteLength":48,"target":34962,"byteStride":12},{"buffer":0,"byteOffset":16428,"byteLength":48,"target":34962,"byteStride":12},{"buffer":0,"byteOffset":16476,"byteLength":32,"target":34962,"byteStride":8},{"buffer":0,"byteOffset":16508,"byteLength":12,"target":34963}],"buffers":[{"byteLength":16520,"uri":"data:application/octet-stream;base64,"}],"accessors":[{"bufferView":0,"componentType":5126,"count":4,"max":[1,0,1],"min":[-1,0,-1],"type":"VEC3"},{"bufferView":1,"componentType":5126,"count":4,"max":[0,1,0],"min":[0,1,0],"type":"VEC3"},{"bufferView":2,"componentType":5126,"count":4,"max":[1,1],"min":[0,0],"type":"VEC2"},{"bufferView":3,"componentType":5123,"count":6,"max":[3],"min":[0],"type":"SCALAR"},{"bufferView":4,"componentType":5126,"count":392,"max":[1,0.5,0.015625],"min":[-1,0,-0.015625],"type":"VEC3"},{"bufferView":5,"componentType":5126,"count":392,"max":[1,1,1],"min":[-1,-1,-1],"type":"VEC3"},{"bufferView":6,"componentType":5126,"count":392,"max":[0.5,0.546875],"min":[0,0],"type":"VEC2"},{"bufferView":7,"componentType":5123,"count":588,"max":[391],"min":[0],"type":"SCALAR"},{"bufferView":8,"componentType":5126,"count":24,"max":[0.015625,0.5,1],"min":[-0.015625,0,-1],"type":"VEC3"},{"bufferView":9,"componentType":5126,"count":24,"max":[1,1,1],"min":[-1,-1,-1],"type":"VEC3"},{"bufferView":10,"componentType":5126,"count":24,"max":[0.5,0.78125],"min":[0,0],"type":"VEC2"},{"bufferView":11,"componentType":5123,"count":36,"max":[23],"min":[0],"type":"SCALAR"},{"bufferView":12,"componentType":5126,"count":24,"max":[0.015625,0.5,1],"min":[-0.015625,0,-1],"type":"VEC3"},{"bufferView":13,"componentType":5126,"count":24,"max":[1,1,1],"min":[-1,-1,-1],"type":"VEC3"},{"bufferView":14,"componentType":5126,"count":24,"max":[0.5,0.5],"min":[0,0],"type":"VEC2"},{"bufferView":15,"componentType":5123,"count":36,"max":[23],"min":[0],"type":"SCALAR"},{"bufferView":16,"componentType":5126,"count":24,"max":[1,0.5,0.015625],"min":[-1,0,-0.015625],"type":"VEC3"},{"bufferView":17,"componentType":5126,"count":24,"max":[1,1,1],"min":[-1,-1,-1],"type":"VEC3"},{"bufferView":18,"componentType":5126,"count":24,"max":[1,0.9375],"min":[0,0],"type":"VEC2"},{"bufferView":19,"componentType":5123,"count":36,"max":[23],"min":[0],"type":"SCALAR"},{"bufferView":20,"componentType":5126,"count":4,"max":[0.75,0,0.203125],"min":[-0.75,0,-0.203125],"type":"VEC3"},{"bufferView":21,"componentType":5126,"count":4,"max":[0,1,0],"min":[0,1,0],"type":"VEC3"},{"bufferView":22,"componentType":5126,"count":4,"max":[0.75,0.21875],"min":[0,0],"type":"VEC2"},{"bufferView":23,"componentType":5123,"count":6,"max":[3],"min":[0],"type":"SCALAR"}],"materials":[{"pbrMetallicRoughness":{"metallicFactor":0,"roughnessFactor":1,"baseColorTexture":{"index":0}},"alphaMode":"MASK","alphaCutoff":0.05,"doubleSided":true},{"pbrMetallicRoughness":{"metallicFactor":0,"roughnessFactor":1,"baseColorTexture":{"index":1}},"alphaMode":"MASK","alphaCutoff":0.05,"doubleSided":true},{"pbrMetallicRoughness":{"metallicFactor":0,"roughnessFactor":1,"baseColorTexture":{"index":2}},"alphaMode":"MASK","alphaCutoff":0.05,"doubleSided":true},{"pbrMetallicRoughness":{"metallicFactor":0,"roughnessFactor":1,"baseColorTexture":{"index":3}},"alphaMode":"MASK","alphaCutoff":0.05,"doubleSided":true},{"pbrMetallicRoughness":{"metallicFactor":0,"roughnessFactor":1,"baseColorTexture":{"index":4}},"alphaMode":"MASK","alphaCutoff":0.05,"doubleSided":true}],"textures":[{"sampler":0,"source":0,"name":"wood.png"},{"sampler":1,"source":1,"name":"texture"},{"sampler":2,"source":2,"name":"wall"},{"sampler":3,"source":3,"name":"wall"},{"sampler":4,"source":4,"name":"window"}],"samplers":[{"magFilter":9728,"minFilter":9728,"wrapS":33071,"wrapT":33071},{"magFilter":9728,"minFilter":9728,"wrapS":33071,"wrapT":33071},{"magFilter":9728,"minFilter":9728,"wrapS":33071,"wrapT":33071},{"magFilter":9728,"minFilter":9728,"wrapS":33071,"wrapT":33071},{"magFilter":9728,"minFilter":9728,"wrapS":33071,"wrapT":33071}],"images":[{"mimeType":"image/png","uri":"data:image/png;base64,"},{"mimeType":"image/png","uri":"data:image/png;base64,"},{"mimeType":"image/png","uri":"data:image/png;base64,"},{"mimeType":"image/png","uri":"data:image/png;base64,"},{"mimeType":"image/png","uri":"data:image/png;base64,"}],"meshes":[{"primitives":[{"mode":4,"attributes":{"POSITION":0,"NORMAL":1,"TEXCOORD_0":2},"indices":3,"material":0}]},{"primitives":[{"mode":4,"attributes":{"POSITION":4,"NORMAL":5,"TEXCOORD_0":6},"indices":7,"material":1}]},{"primitives":[{"mode":4,"attributes":{"POSITION":8,"NORMAL":9,"TEXCOORD_0":10},"indices":11,"material":2}]},{"primitives":[{"mode":4,"attributes":{"POSITION":12,"NORMAL":13,"TEXCOORD_0":14},"indices":15,"material":2}]},{"primitives":[{"mode":4,"attributes":{"POSITION":16,"NORMAL":17,"TEXCOORD_0":18},"indices":19,"material":3}]},{"primitives":[{"mode":4,"attributes":{"POSITION":20,"NORMAL":21,"TEXCOORD_0":22},"indices":23,"material":4}]}]}